<svg width="193" height="40" viewBox="0 0 193 40" fill="none" xmlns="http://www.w3.org/2000/svg">
<path d="M54.8066 20.84C54.8066 19.5787 55.0413 18.4713 55.5106 17.518C55.9946 16.5647 56.6473 15.8313 57.4686 15.318C58.29 14.8047 59.2066 14.548 60.2186 14.548C61.0253 14.548 61.7586 14.7167 62.4186 15.054C63.0933 15.3913 63.6213 15.846 64.0026 16.418V10.72H67.7646V27H64.0026V25.24C63.6506 25.8267 63.1446 26.296 62.4846 26.648C61.8393 27 61.084 27.176 60.2186 27.176C59.2066 27.176 58.29 26.9193 57.4686 26.406C56.6473 25.878 55.9946 25.1373 55.5106 24.184C55.0413 23.216 54.8066 22.1013 54.8066 20.84ZM64.0026 20.862C64.0026 19.9233 63.7386 19.1827 63.2106 18.64C62.6973 18.0973 62.0666 17.826 61.3186 17.826C60.5706 17.826 59.9326 18.0973 59.4046 18.64C58.8913 19.168 58.6346 19.9013 58.6346 20.84C58.6346 21.7787 58.8913 22.5267 59.4046 23.084C59.9326 23.6267 60.5706 23.898 61.3186 23.898C62.0666 23.898 62.6973 23.6267 63.2106 23.084C63.7386 22.5413 64.0026 21.8007 64.0026 20.862ZM72.9283 13.448C72.2683 13.448 71.7256 13.2573 71.3003 12.876C70.8896 12.48 70.6843 11.996 70.6843 11.424C70.6843 10.8373 70.8896 10.3533 71.3003 9.972C71.7256 9.576 72.2683 9.378 72.9283 9.378C73.5736 9.378 74.1016 9.576 74.5123 9.972C74.9376 10.3533 75.1503 10.8373 75.1503 11.424C75.1503 11.996 74.9376 12.48 74.5123 12.876C74.1016 13.2573 73.5736 13.448 72.9283 13.448ZM74.7983 14.724V27H71.0363V14.724H74.7983ZM77.3266 20.84C77.3266 19.5787 77.5612 18.4713 78.0306 17.518C78.5146 16.5647 79.1672 15.8313 79.9886 15.318C80.8099 14.8047 81.7266 14.548 82.7386 14.548C83.6039 14.548 84.3592 14.724 85.0046 15.076C85.6646 15.428 86.1706 15.89 86.5226 16.462V14.724H90.2846V27H86.5226V25.262C86.1559 25.834 85.6426 26.296 84.9826 26.648C84.3372 27 83.5819 27.176 82.7166 27.176C81.7192 27.176 80.8099 26.9193 79.9886 26.406C79.1672 25.878 78.5146 25.1373 78.0306 24.184C77.5612 23.216 77.3266 22.1013 77.3266 20.84ZM86.5226 20.862C86.5226 19.9233 86.2586 19.1827 85.7306 18.64C85.2172 18.0973 84.5866 17.826 83.8386 17.826C83.0906 17.826 82.4526 18.0973 81.9246 18.64C81.4112 19.168 81.1546 19.9013 81.1546 20.84C81.1546 21.7787 81.4112 22.5267 81.9246 23.084C82.4526 23.6267 83.0906 23.898 83.8386 23.898C84.5866 23.898 85.2172 23.6267 85.7306 23.084C86.2586 22.5413 86.5226 21.8007 86.5226 20.862ZM98.5502 27.176C97.4795 27.176 96.5262 26.9927 95.6902 26.626C94.8542 26.2593 94.1942 25.7607 93.7102 25.13C93.2262 24.4847 92.9549 23.766 92.8962 22.974H96.6142C96.6582 23.3993 96.8562 23.744 97.2082 24.008C97.5602 24.272 97.9929 24.404 98.5062 24.404C98.9755 24.404 99.3349 24.316 99.5842 24.14C99.8482 23.9493 99.9802 23.7073 99.9802 23.414C99.9802 23.062 99.7969 22.8053 99.4302 22.644C99.0635 22.468 98.4695 22.2773 97.6482 22.072C96.7682 21.8667 96.0349 21.654 95.4482 21.434C94.8615 21.1993 94.3555 20.84 93.9302 20.356C93.5049 19.8573 93.2922 19.19 93.2922 18.354C93.2922 17.65 93.4829 17.012 93.8642 16.44C94.2602 15.8533 94.8322 15.3913 95.5802 15.054C96.3429 14.7167 97.2449 14.548 98.2862 14.548C99.8262 14.548 101.036 14.9293 101.916 15.692C102.811 16.4547 103.324 17.4667 103.456 18.728H99.9802C99.9215 18.3027 99.7309 17.9653 99.4082 17.716C99.1002 17.4667 98.6895 17.342 98.1762 17.342C97.7362 17.342 97.3989 17.43 97.1642 17.606C96.9295 17.7673 96.8122 17.9947 96.8122 18.288C96.8122 18.64 96.9955 18.904 97.3622 19.08C97.7435 19.256 98.3302 19.432 99.1222 19.608C100.032 19.8427 100.772 20.0773 101.344 20.312C101.916 20.532 102.415 20.8987 102.84 21.412C103.28 21.9107 103.508 22.5853 103.522 23.436C103.522 24.1547 103.317 24.8 102.906 25.372C102.51 25.9293 101.931 26.3693 101.168 26.692C100.42 27.0147 99.5475 27.176 98.5502 27.176ZM127.25 14.592C128.775 14.592 129.985 15.054 130.88 15.978C131.789 16.902 132.244 18.1853 132.244 19.828V27H128.504V20.334C128.504 19.542 128.291 18.9333 127.866 18.508C127.455 18.068 126.883 17.848 126.15 17.848C125.417 17.848 124.837 18.068 124.412 18.508C124.001 18.9333 123.796 19.542 123.796 20.334V27H120.056V20.334C120.056 19.542 119.843 18.9333 119.418 18.508C119.007 18.068 118.435 17.848 117.702 17.848C116.969 17.848 116.389 18.068 115.964 18.508C115.553 18.9333 115.348 19.542 115.348 20.334V27H111.586V14.724H115.348V16.264C115.729 15.7507 116.228 15.3473 116.844 15.054C117.46 14.746 118.157 14.592 118.934 14.592C119.858 14.592 120.679 14.79 121.398 15.186C122.131 15.582 122.703 16.1467 123.114 16.88C123.539 16.2053 124.119 15.6553 124.852 15.23C125.585 14.8047 126.385 14.592 127.25 14.592ZM141.013 27.176C139.81 27.176 138.725 26.9193 137.757 26.406C136.804 25.8927 136.048 25.1593 135.491 24.206C134.948 23.2527 134.677 22.138 134.677 20.862C134.677 19.6007 134.956 18.4933 135.513 17.54C136.07 16.572 136.833 15.8313 137.801 15.318C138.769 14.8047 139.854 14.548 141.057 14.548C142.26 14.548 143.345 14.8047 144.313 15.318C145.281 15.8313 146.044 16.572 146.601 17.54C147.158 18.4933 147.437 19.6007 147.437 20.862C147.437 22.1233 147.151 23.238 146.579 24.206C146.022 25.1593 145.252 25.8927 144.269 26.406C143.301 26.9193 142.216 27.176 141.013 27.176ZM141.013 23.92C141.732 23.92 142.34 23.656 142.839 23.128C143.352 22.6 143.609 21.8447 143.609 20.862C143.609 19.8793 143.36 19.124 142.861 18.596C142.377 18.068 141.776 17.804 141.057 17.804C140.324 17.804 139.715 18.068 139.231 18.596C138.747 19.1093 138.505 19.8647 138.505 20.862C138.505 21.8447 138.74 22.6 139.209 23.128C139.693 23.656 140.294 23.92 141.013 23.92ZM157.463 14.592C158.9 14.592 160.044 15.0613 160.895 16C161.76 16.924 162.193 18.2 162.193 19.828V27H158.453V20.334C158.453 19.5127 158.24 18.8747 157.815 18.42C157.389 17.9653 156.817 17.738 156.099 17.738C155.38 17.738 154.808 17.9653 154.383 18.42C153.957 18.8747 153.745 19.5127 153.745 20.334V27H149.983V14.724H153.745V16.352C154.126 15.8093 154.639 15.384 155.285 15.076C155.93 14.7533 156.656 14.592 157.463 14.592ZM176.929 20.664C176.929 21.016 176.907 21.3827 176.863 21.764H168.349C168.408 22.5267 168.65 23.1133 169.075 23.524C169.515 23.92 170.05 24.118 170.681 24.118C171.62 24.118 172.272 23.722 172.639 22.93H176.643C176.438 23.7367 176.064 24.4627 175.521 25.108C174.993 25.7533 174.326 26.2593 173.519 26.626C172.712 26.9927 171.81 27.176 170.813 27.176C169.61 27.176 168.54 26.9193 167.601 26.406C166.662 25.8927 165.929 25.1593 165.401 24.206C164.873 23.2527 164.609 22.138 164.609 20.862C164.609 19.586 164.866 18.4713 165.379 17.518C165.907 16.5647 166.64 15.8313 167.579 15.318C168.518 14.8047 169.596 14.548 170.813 14.548C172.001 14.548 173.057 14.7973 173.981 15.296C174.905 15.7947 175.624 16.506 176.137 17.43C176.665 18.354 176.929 19.432 176.929 20.664ZM173.079 19.674C173.079 19.0287 172.859 18.5153 172.419 18.134C171.979 17.7527 171.429 17.562 170.769 17.562C170.138 17.562 169.603 17.7453 169.163 18.112C168.738 18.4787 168.474 18.9993 168.371 19.674H173.079ZM192.004 14.724L184.304 32.83H180.256L183.072 26.582L178.078 14.724H182.28L185.118 22.402L187.934 14.724H192.004Z" fill="white"/>
<path d="M34.1422 5.85781C30.3647 2.08031 25.3422 0 20 0C14.6578 0 9.63531 2.08031 5.85781 5.85781C2.08031 9.63531 0 14.6578 0 20C0 25.3422 2.08039 30.3646 5.85781 34.1422C9.63523 37.9198 14.6578 40 20 40C25.3422 40 30.3647 37.9197 34.1422 34.1422C37.9197 30.3647 40 25.3422 40 20C40 14.6578 37.9196 9.63539 34.1422 5.85781Z" fill="#772E08"/>
<g clip-path="url(#clip0)">
<path d="M20.5714 8V33.1429" stroke="white" stroke-width="2" stroke-linecap="round" stroke-linejoin="round"/>
<path d="M26.2857 12.5714H17.7143C16.6534 12.5714 15.636 12.9929 14.8859 13.743C14.1357 14.4931 13.7143 15.5106 13.7143 16.5714C13.7143 17.6323 14.1357 18.6497 14.8859 19.3999C15.636 20.15 16.6534 20.5714 17.7143 20.5714H23.4286C24.4894 20.5714 25.5069 20.9929 26.257 21.743C27.0072 22.4932 27.4286 23.5106 27.4286 24.5714C27.4286 25.6323 27.0072 26.6497 26.257 27.3999C25.5069 28.15 24.4894 28.5714 23.4286 28.5714H13.7143" stroke="white" stroke-width="2" stroke-linecap="round" stroke-linejoin="round"/>
</g>
<defs>
<clipPath id="clip0">
<rect width="27.4286" height="27.4286" fill="white" transform="translate(6.85715 6.85714)"/>
</clipPath>
</defs>
</svg>
